<svg xmlns="http://www.w3.org/2000/svg" x="0px" y="0px" width="100" height="100" viewBox="0 0 50 50">
<path d="M 8.9628906 0 A 1.0001 1.0001 0 0 0 8.0058594 1.0996094 L 8.9824219 10.871094 C 8.8694245 11.161751 8.700801 11.648339 8.5195312 12.554688 C 8.2544455 13.880116 8 15.944444 8 19 C 8 23.06572 8.9768882 26.067153 9.0253906 26.214844 C 8.9982766 26.449895 8.8730449 27.277547 9.1347656 29.138672 C 9.4295288 31.234766 10.175692 34.324294 11.958984 38.400391 C 15.662022 46.864182 21.548828 49.892578 21.548828 49.892578 A 1.0001 1.0001 0 0 0 22 50 L 28 50 A 1.0001 1.0001 0 0 0 28.451172 49.892578 C 28.451172 49.892578 34.337978 46.864182 38.041016 38.400391 C 39.824308 34.324294 40.570471 31.234766 40.865234 29.138672 C 41.126955 27.277547 41.001723 26.449895 40.974609 26.214844 C 41.023112 26.067153 42 23.06572 42 19 C 42 15.944444 41.745555 13.880116 41.480469 12.554688 C 41.299199 11.648338 41.130576 11.161751 41.017578 10.871094 L 41.994141 1.0996094 A 1.0001 1.0001 0 0 0 40.552734 0.10546875 L 34.917969 2.9238281 C 34.273153 2.6668118 30.073004 1.0434975 25.130859 1.0117188 A 1.0001 1.0001 0 0 0 25 1 C 20.006261 1 15.732745 2.6644611 15.082031 2.9238281 L 9.4472656 0.10546875 A 1.0001 1.0001 0 0 0 8.9628906 0 z M 10.173828 2.7050781 L 12.746094 3.9921875 C 12.642731 4.0548976 12.445313 4.1679688 12.445312 4.1679688 A 1.0001 1.0001 0 0 0 12 5 C 12 5 12.006341 8.3561746 12.472656 13.708984 L 10.976562 10.716797 L 10.173828 2.7050781 z M 39.826172 2.7050781 L 39.023438 10.716797 L 37.527344 13.708984 C 37.993654 8.3561746 38 5 38 5 A 1.0001 1.0001 0 0 0 37.554688 4.1679688 C 37.554688 4.1679688 37.357269 4.0548976 37.253906 3.9921875 L 39.826172 2.7050781 z M 24 3.0449219 L 24 12 A 1.0001 1.0001 0 1 0 26 12 L 26 3.0449219 C 28.247986 3.1601916 30.343035 3.6084807 31.935547 4.0546875 L 31.027344 15.603516 L 26.232422 21.359375 A 1.0001 1.0001 0 0 0 26 22 L 26 24 L 26 28.058594 C 25.743851 28.046954 25.500443 28.030949 25.220703 28.027344 A 1.0001 1.0001 0 0 0 25 28 C 24.635703 28 24.321172 28.016638 24 28.03125 L 24 24 L 24 22 A 1.0001 1.0001 0 0 0 23.767578 21.359375 L 18.972656 15.603516 L 18.064453 4.0546875 C 19.656965 3.6084806 21.752014 3.1601916 24 3.0449219 z M 16.107422 4.6582031 L 17.003906 16.078125 A 1.0001 1.0001 0 0 0 17.232422 16.640625 L 21.904297 22.246094 L 14.966797 18.392578 C 14.083002 11.004671 14.025218 6.3758222 14.019531 5.5996094 C 14.261199 5.4527997 14.50477 5.2742639 15.371094 4.9277344 A 1.0001 1.0001 0 0 0 15.378906 4.9257812 C 15.378906 4.9257813 15.687561 4.8064948 16.107422 4.6582031 z M 33.892578 4.6582031 C 34.312439 4.8064948 34.621094 4.9257812 34.621094 4.9257812 A 1.0001 1.0001 0 0 0 34.636719 4.9316406 C 35.493847 5.2751957 35.739857 5.4534414 35.980469 5.5996094 C 35.974736 6.3758222 35.916996 11.004671 35.033203 18.392578 L 28.095703 22.246094 L 32.767578 16.640625 A 1.0001 1.0001 0 0 0 32.996094 16.078125 L 33.892578 4.6582031 z M 10.322266 13.880859 L 13.105469 19.447266 A 1.0001 1.0001 0 0 0 13.513672 19.875 L 22 24.587891 L 22 27.855469 L 13.486328 23.125 A 1.0001 1.0001 0 0 0 13 23 L 10.335938 23 C 10.153301 21.899884 10 20.535772 10 19 C 10 16.725882 10.147345 15.065593 10.322266 13.880859 z M 39.677734 13.880859 C 39.852655 15.065593 40 16.725882 40 19 C 40 20.535772 39.846699 21.899884 39.664062 23 L 37 23 A 1.0001 1.0001 0 0 0 36.513672 23.125 L 28 27.855469 L 28 24.587891 L 36.486328 19.875 A 1.0001 1.0001 0 0 0 36.894531 19.447266 L 39.677734 13.880859 z M 11.869141 25 L 12.740234 25 L 19.8125 28.929688 C 19.779713 28.948044 19.734556 28.968642 19.705078 28.986328 C 19.695391 28.99214 19.697044 28.99406 19.6875 29 L 14.535156 29 L 11.869141 25 z M 37.259766 25 L 38.130859 25 L 35.464844 29 L 30.3125 29 C 30.302956 28.99406 30.304609 28.99214 30.294922 28.986328 C 30.265444 28.968642 30.220287 28.948044 30.1875 28.929688 L 37.259766 25 z M 10.96875 27.255859 L 13.167969 30.554688 A 1.0001 1.0001 0 0 0 14 31 L 19.279297 31 L 21.050781 36.316406 A 1.0001 1.0001 0 0 0 22.707031 36.707031 C 22.707031 36.707031 22.816523 36.584903 23.197266 36.394531 C 23.578009 36.20416 24.166667 36 25 36 C 25.833333 36 26.421991 36.20416 26.802734 36.394531 C 27.183477 36.584903 27.292969 36.707031 27.292969 36.707031 A 1.0001 1.0001 0 0 0 28.949219 36.316406 L 30.720703 31 L 36 31 A 1.0001 1.0001 0 0 0 36.832031 30.554688 L 39.03125 27.255859 C 39.015396 27.670916 38.981827 28.171115 38.884766 28.861328 C 38.811605 29.381581 38.697526 29.993352 38.548828 30.664062 C 38.480879 30.801685 38.087637 31.590331 37.511719 32.439453 C 37.197808 32.902278 36.841934 33.352824 36.529297 33.644531 C 36.216659 33.936239 35.969951 34 36 34 L 34 34 A 1.0001 1.0001 0 0 0 33.105469 34.552734 L 30.105469 40.552734 A 1.0001 1.0001 0 0 0 30.292969 41.707031 L 32.429688 43.84375 C 30.006654 46.788307 27.845473 47.921135 27.691406 48 L 22.308594 48 C 22.154527 47.921135 19.993346 46.788307 17.570312 43.84375 L 19.707031 41.707031 A 1.0001 1.0001 0 0 0 19.894531 40.552734 L 16.894531 34.552734 A 1.0001 1.0001 0 0 0 16 34 L 14 34 C 14.03005 34 13.783341 33.93624 13.470703 33.644531 C 13.158066 33.352824 12.802192 32.902278 12.488281 32.439453 C 11.912363 31.590331 11.519121 30.801685 11.451172 30.664062 C 11.302474 29.993351 11.188395 29.381581 11.115234 28.861328 C 11.018173 28.171115 10.984604 27.670916 10.96875 27.255859 z M 25 30 C 26.916667 30 28.060085 30.241382 28.683594 30.449219 C 28.735894 30.466649 28.73607 30.475397 28.78125 30.492188 L 27.429688 34.544922 C 26.819997 34.270971 26.050885 34 25 34 C 23.949115 34 23.179999 34.270972 22.570312 34.544922 L 21.21875 30.492188 C 21.26393 30.475397 21.264106 30.466649 21.316406 30.449219 C 21.939911 30.241383 23.083333 30 25 30 z M 13.058594 35.775391 C 13.33795 35.906947 13.643719 36 14 36 L 15.382812 36 L 17.783203 40.802734 L 16.355469 42.230469 C 15.470799 40.947971 14.58859 39.422573 13.791016 37.599609 C 13.506716 36.949782 13.289383 36.369661 13.058594 35.775391 z M 36.941406 35.775391 C 36.710617 36.369661 36.493284 36.949782 36.208984 37.599609 C 35.41141 39.422573 34.529201 40.947971 33.644531 42.230469 L 32.216797 40.802734 L 34.617188 36 L 36 36 C 36.356281 36 36.66205 35.906947 36.941406 35.775391 z"></path>
</svg>